<svg id="Calque_1" data-name="Calque 1" xmlns="http://www.w3.org/2000/svg" viewBox="0 0 400 400"><defs><style>.cls-1{fill:#fff;}</style></defs><title>pepites-logo-blanc</title><path class="cls-1" d="M200.18,239.1a79.76,79.76,0,1,1,79.75-79.76A79.76,79.76,0,0,1,200.18,239.1ZM193.87,165a24.82,24.82,0,1,0-7.28,34.34A24.83,24.83,0,0,0,193.87,165Zm22.54-3.3,21.6-14a7.92,7.92,0,1,0-8.64-13.28l-21.6,14a7.92,7.92,0,0,0,8.64,13.28Zm-19.17-21.27L209,113.78a7.92,7.92,0,0,0-14.49-6.4L182.76,134a7.92,7.92,0,1,0,14.48,6.4Zm59.49,41a7.92,7.92,0,0,0-7.92-7.92H219.88a7.92,7.92,0,1,0,0,15.84h28.93A7.91,7.91,0,0,0,256.73,181.4Zm-33.11,9.44"/><path class="cls-1" d="M84,306.4a6.19,6.19,0,0,1-1.68-4.57V265a5.27,5.27,0,0,1,5.84-5.84h17.61q8,0,12.51,4.09t4.48,11.38q0,7.21-4.51,11.35c-3,2.75-7.17,4.12-12.48,4.12H94.94v11.7a6.13,6.13,0,0,1-1.72,4.57,6.4,6.4,0,0,1-4.68,1.68A6.2,6.2,0,0,1,84,306.4Zm20-25.76c2.33,0,4.07-.48,5.19-1.44a5.54,5.54,0,0,0,1.69-4.47q0-6-6.88-6H94.94v11.89Z"/><path class="cls-1" d="M156.67,298a5,5,0,0,1,1,3.23,4.54,4.54,0,0,1-2.68,4.2,27,27,0,0,1-5.54,2,24.47,24.47,0,0,1-5.88.79,21.42,21.42,0,0,1-9.83-2.13,15.13,15.13,0,0,1-6.47-6.12,18.63,18.63,0,0,1-2.26-9.35,19,19,0,0,1,2.16-9.12,15.67,15.67,0,0,1,6.06-6.26A17.29,17.29,0,0,1,142,273a16.4,16.4,0,0,1,8.32,2.06,14.16,14.16,0,0,1,5.54,5.85,19,19,0,0,1,2,8.87,3.7,3.7,0,0,1-.72,2.44,2.58,2.58,0,0,1-2.1.86H136.82a7.55,7.55,0,0,0,2.14,4.75,7.22,7.22,0,0,0,4.88,1.44,12.11,12.11,0,0,0,3.16-.38,30,30,0,0,0,3.23-1.06c.7-.28,1.37-.52,2-.72a6.09,6.09,0,0,1,1.82-.31A3.19,3.19,0,0,1,156.67,298Zm-18.19-15.23a7.42,7.42,0,0,0-1.73,4.51h10.81c-.28-4-2-6.06-5.23-6.06A5,5,0,0,0,138.48,282.81Zm3.78-13a3,3,0,0,1-2.2-.9,2.81,2.81,0,0,1-.9-2.06,3.25,3.25,0,0,1,.76-2.06l5.08-7a6.78,6.78,0,0,1,2.18-2,5.1,5.1,0,0,1,2.44-.65,5,5,0,0,1,3.5,1.41,4.42,4.42,0,0,1,1.52,3.34,4.93,4.93,0,0,1-2.55,4.12l-7.77,5.09A3.47,3.47,0,0,1,142.26,269.78Z"/><path class="cls-1" d="M193.53,275.24a14.82,14.82,0,0,1,5.29,6.3,21.73,21.73,0,0,1,1.89,9.28,21,21,0,0,1-1.89,9.18,13.83,13.83,0,0,1-13,8.22,13.54,13.54,0,0,1-5.95-1.3,10.46,10.46,0,0,1-4.23-3.51V315.1A4.86,4.86,0,0,1,174,319a6.36,6.36,0,0,1-4.33,1.45,6.59,6.59,0,0,1-4.55-1.55,5.1,5.1,0,0,1-1.71-4v-36.1A5.41,5.41,0,0,1,165,274.7a6,6,0,0,1,4.37-1.55,6.31,6.31,0,0,1,4.23,1.37,5.22,5.22,0,0,1,1.83,3.65,9.85,9.85,0,0,1,4.23-3.79,14.52,14.52,0,0,1,13.89.86Zm-6.61,21.7a9.63,9.63,0,0,0,1.69-6.12,10.43,10.43,0,0,0-1.72-6.43,6.49,6.49,0,0,0-9.77,0,10.11,10.11,0,0,0-1.71,6.33,9.86,9.86,0,0,0,1.71,6.22,6,6,0,0,0,5,2.16A5.81,5.81,0,0,0,186.92,296.94Z"/><path class="cls-1" d="M207.55,266.72a5.48,5.48,0,0,1-1.82-4.3,5.39,5.39,0,0,1,1.82-4.27,8.4,8.4,0,0,1,9.81,0,5.36,5.36,0,0,1,1.86,4.27,5.49,5.49,0,0,1-1.83,4.3,8.32,8.32,0,0,1-9.84,0Zm.56,39.95a5.1,5.1,0,0,1-1.76-4.23V278.79a5.1,5.1,0,0,1,1.76-4.23,7.46,7.46,0,0,1,8.73,0,5.1,5.1,0,0,1,1.75,4.23v23.65a5.1,5.1,0,0,1-1.75,4.23,7.46,7.46,0,0,1-8.73,0Z"/><path class="cls-1" d="M250.3,303.48a3.93,3.93,0,0,1-1.86,3.57,9,9,0,0,1-5.29,1l-1.93-.14q-6.19-.48-9.39-3.75T228.64,295V282.84h-2q-5.5,0-5.5-4.53c0-3,1.83-4.47,5.5-4.47h2v-4.48a5.41,5.41,0,0,1,1.65-4.16,7.24,7.24,0,0,1,8.93,0,5.42,5.42,0,0,1,1.66,4.16v4.48h3.78c3.67,0,5.5,1.48,5.5,4.47s-1.83,4.53-5.5,4.53h-3.78v13.21a3.2,3.2,0,0,0,.79,2.2,2.77,2.77,0,0,0,2,1l2,.14Q250.3,299.62,250.3,303.48Z"/><path class="cls-1" d="M283.62,298a5,5,0,0,1,1,3.23,4.54,4.54,0,0,1-2.68,4.2,26.6,26.6,0,0,1-5.54,2,24.33,24.33,0,0,1-5.87.79,21.46,21.46,0,0,1-9.84-2.13,15.1,15.1,0,0,1-6.46-6.12,18.63,18.63,0,0,1-2.27-9.35,18.85,18.85,0,0,1,2.17-9.12,15.65,15.65,0,0,1,6.05-6.26,17.36,17.36,0,0,1,8.77-2.23,16.39,16.39,0,0,1,8.31,2.06,14,14,0,0,1,5.54,5.85,19,19,0,0,1,2,8.87,3.7,3.7,0,0,1-.72,2.44,2.58,2.58,0,0,1-2.1.86H263.78a7.54,7.54,0,0,0,2.13,4.75,7.25,7.25,0,0,0,4.89,1.44,12,12,0,0,0,3.15-.38,30.89,30.89,0,0,0,3.24-1.06c.69-.28,1.36-.52,2-.72a6.15,6.15,0,0,1,1.83-.31A3.18,3.18,0,0,1,283.62,298Zm-18.19-15.23a7.41,7.41,0,0,0-1.72,4.51h10.8q-.42-6.06-5.23-6.06A5,5,0,0,0,265.43,282.81Z"/><path class="cls-1" d="M295.89,307.53a17.17,17.17,0,0,1-5.57-2.2,3.36,3.36,0,0,1-1.51-1.65,6,6,0,0,1-.55-2.61,4.65,4.65,0,0,1,1-3.06,3.14,3.14,0,0,1,2.52-1.2,7.43,7.43,0,0,1,1.92.24,17,17,0,0,1,2.2.79c1.47.5,2.77.89,3.89,1.16a18.14,18.14,0,0,0,4.29.42,6.71,6.71,0,0,0,2.93-.52,1.61,1.61,0,0,0,1.07-1.48,1.44,1.44,0,0,0-.52-1.17,6,6,0,0,0-2-.79c-1-.25-2.59-.6-4.89-1.06q-6.12-1.17-8.83-3.54a8.45,8.45,0,0,1-2.72-6.71,9.17,9.17,0,0,1,2-5.71,13.14,13.14,0,0,1,5.4-4,19.75,19.75,0,0,1,7.7-1.44,23.65,23.65,0,0,1,6,.76,19,19,0,0,1,5.19,2.13,4.24,4.24,0,0,1,2.14,4,5,5,0,0,1-1,3.23,3.12,3.12,0,0,1-2.54,1.31,10.32,10.32,0,0,1-4.26-1.17,21.62,21.62,0,0,0-2.93-1.14,10.6,10.6,0,0,0-3-.38,5.77,5.77,0,0,0-2.68.52,1.61,1.61,0,0,0-1,1.48,1.91,1.91,0,0,0,1.34,1.72,27,27,0,0,0,5.33,1.37c4.44.78,7.59,2,9.42,3.54a8.58,8.58,0,0,1,2.75,6.85,9.38,9.38,0,0,1-4.16,8q-4.15,3-11.17,3A37.2,37.2,0,0,1,295.89,307.53Z"/></svg>